<?xml version="1.0" encoding="UTF-8"?>
<svg version="1.1" xmlns="http://www.w3.org/2000/svg" width="225" height="225">
<path d="M0 0 C74.25 0 148.5 0 225 0 C225 74.25 225 148.5 225 225 C150.75 225 76.5 225 0 225 C0 150.75 0 76.5 0 0 Z " fill="#000000" transform="translate(0,0)"/>
<path d="M0 0 C74.25 0 148.5 0 225 0 C225 10.89 225 21.78 225 33 C223.02 30.525 223.02 30.525 221 28 C215.86013539 23.98503711 209.713311 21.24402728 203.86328125 18.42578125 C203.02081345 18.01587448 202.17834564 17.60596771 201.31034851 17.18363953 C199.54410283 16.32531646 197.77681966 15.46912532 196.00854492 14.61499023 C193.3073571 13.3100154 190.60949847 11.99835299 187.91210938 10.68554688 C186.18768947 9.84856787 184.4630864 9.01196609 182.73828125 8.17578125 C181.93610672 7.78618729 181.13393219 7.39659332 180.30744934 6.99519348 C172.77157798 3.12907584 172.77157798 3.12907584 164.5625 1.625 C163.48162109 1.58246094 163.48162109 1.58246094 162.37890625 1.5390625 C155.78205833 2.81726949 150.78195839 8.83738475 146.125 13.3125 C141.46158897 17.76475465 136.75561953 22.12976012 131.88427734 26.35424805 C129.12279986 28.76615783 126.4346582 31.25328923 123.75 33.75 C122.62385058 34.79313358 121.49754489 35.83609849 120.37109375 36.87890625 C119.81019043 37.39855957 119.24928711 37.91821289 118.67138672 38.45361328 C112.50688635 44.15708178 106.31492125 49.83048997 100.0625 55.4375 C96.17629044 58.92448418 92.33171834 62.45347424 88.5 66 C77.06252245 76.57920575 77.06252245 76.57920575 72 81 C71.1646875 81.763125 70.329375 82.52625 69.46875 83.3125 C67 85 67 85 65.08105469 84.77661133 C62.74126897 83.90344634 61.18366569 82.82070353 59.234375 81.26171875 C58.51644775 80.69420898 57.79852051 80.12669922 57.05883789 79.54199219 C56.29692139 78.93000977 55.53500488 78.31802734 54.75 77.6875 C53.14025711 76.41418268 51.52955951 75.14207149 49.91796875 73.87109375 C49.10247559 73.22640137 48.28698242 72.58170898 47.44677734 71.91748047 C43.69189123 68.97486667 39.88305884 66.10655472 36.0625 63.25 C35.39508789 62.74944092 34.72767578 62.24888184 34.04003906 61.7331543 C27.89623521 56.80956443 27.89623521 56.80956443 20.3828125 55.359375 C12.36133295 57.5159695 6.04013098 65.76615379 1 72 C0.67 72 0.34 72 0 72 C0 48.24 0 24.48 0 0 Z " fill="#FEFEFE" transform="translate(0,0)"/>
<path d="M0 0 C2.8317513 1.80119447 4.92867596 3.79400307 7.23828125 6.23046875 C10.76226015 9.86327641 14.33100894 13.28426479 18.171875 16.57421875 C21.10099123 19.13275355 23.94938069 21.77344176 26.80078125 24.41796875 C30.651727 27.98735301 34.51455786 31.53942988 38.42578125 35.04296875 C42.29240692 38.50786708 46.11591911 42.01601443 49.92578125 45.54296875 C54.54928226 49.82274499 59.20670513 54.0605553 63.8984375 58.265625 C66.75660722 60.84107005 69.5925131 63.44022662 72.42578125 66.04296875 C73.43610958 66.9688464 74.44652553 67.89462846 75.45703125 68.8203125 C77.39904188 70.59943255 79.33553237 72.38398867 81.26953125 74.171875 C82.14609375 74.97496094 83.02265625 75.77804688 83.92578125 76.60546875 C84.69921875 77.31832031 85.47265625 78.03117187 86.26953125 78.765625 C90.37866842 82.15268553 93.67167894 83.033697 98.92285156 82.89990234 C103.64028146 82.22716702 107.6077839 80.02557086 111.80078125 77.85546875 C113.81461031 76.8479706 115.82895676 75.8415061 117.84375 74.8359375 C118.90255371 74.30145996 119.96135742 73.76698242 121.05224609 73.21630859 C124.60712717 71.45301761 128.19028624 69.76480781 131.7890625 68.09375 C133.62959376 67.23293599 135.46966056 66.37113602 137.30963135 65.50912476 C139.08329737 64.68195213 140.86168673 63.8649319 142.64013672 63.0480957 C143.7282666 62.53335693 144.81639648 62.01861816 145.9375 61.48828125 C146.90131592 61.03984863 147.86513184 60.59141602 148.8581543 60.12939453 C153.21424623 57.43795349 155.16414554 54.06624017 157.42578125 49.54296875 C157.42578125 61.09296875 157.42578125 72.64296875 157.42578125 84.54296875 C83.17578125 84.54296875 8.92578125 84.54296875 -67.57421875 84.54296875 C-67.57421875 60.45296875 -67.57421875 36.36296875 -67.57421875 11.54296875 C-66.25421875 13.19296875 -64.93421875 14.84296875 -63.57421875 16.54296875 C-61.32507634 18.96670213 -58.95578522 21.25018875 -56.57421875 23.54296875 C-55.8471875 24.31447266 -55.8471875 24.31447266 -55.10546875 25.1015625 C-52.46307266 27.69257866 -50.06784788 28.99492758 -46.44921875 29.41796875 C-40.2312215 28.98701845 -36.2073143 24.99776701 -31.57519531 21.16650391 C-27.36493329 17.75041771 -23.0159653 14.51006523 -18.69921875 11.23046875 C-17.34328613 10.19019531 -17.34328613 10.19019531 -15.95996094 9.12890625 C-14.25441503 7.82328582 -12.54312433 6.52512315 -10.82519531 5.23583984 C-9.46319611 4.21153372 -8.11241086 3.17173365 -6.78417969 2.10400391 C-4.29968068 0.21010852 -3.14345356 -0.55809418 0 0 Z " fill="#FEFEFE" transform="translate(67.57421875,140.45703125)"/>
<path d="M0 0 C0 33.33 0 66.66 0 101 C-2.97773068 99.51113466 -5.28245048 98.17453883 -7.9140625 96.234375 C-8.6661499 95.68096436 -9.4182373 95.12755371 -10.19311523 94.55737305 C-10.99563721 93.96093994 -11.79815918 93.36450684 -12.625 92.75 C-13.46168213 92.1310083 -14.29836426 91.5120166 -15.16040039 90.87426758 C-22.4989577 85.42148877 -29.71506344 79.81849373 -36.9140625 74.18359375 C-40.35044864 71.49718103 -43.8175471 68.8597483 -47.3125 66.25 C-48.23160156 65.56164062 -49.15070313 64.87328125 -50.09765625 64.1640625 C-51.65056804 63.00617134 -53.20451472 61.84962652 -54.76513672 60.70214844 C-56.59987171 59.35155951 -58.42530913 57.98911578 -60.25 56.625 C-60.82403564 56.20766602 -61.39807129 55.79033203 -61.98950195 55.36035156 C-63.38272646 54.31120448 -64.69947837 53.16207901 -66 52 C-66 51.01 -66 50.02 -66 49 C-64.1468974 47.29639139 -62.32295564 45.81247761 -60.3125 44.3125 C-59.69455566 43.83973633 -59.07661133 43.36697266 -58.43994141 42.87988281 C-57.05669081 41.82350891 -55.67008545 40.77151832 -54.28076172 39.72314453 C-51.87820263 37.90798054 -49.48713025 36.07844376 -47.09765625 34.24609375 C-37.39115589 26.81261717 -27.63396344 19.44747474 -17.83544922 12.13574219 C-17.06990723 11.5637207 -16.30436523 10.99169922 -15.515625 10.40234375 C-14.77505859 9.8491748 -14.03449219 9.29600586 -13.27148438 8.72607422 C-10.0825224 6.30281958 -6.95758548 3.80019078 -3.83886719 1.28735352 C-2 0 -2 0 0 0 Z " fill="#FCFCFC" transform="translate(169,62)"/>
<path d="M0 0 C1.32 1.65 2.64 3.3 4 5 C7.94261189 9.26177571 12.22120359 13.11834975 16.6171875 16.90234375 C20.29023009 20.13582551 23.86010932 23.48052471 27.43212891 26.82495117 C30.18270319 29.38547217 32.9320533 31.82563001 36 34 C35.43347161 37.45880492 34.45567597 38.81726981 31.75 41 C27.93362743 44.18714986 24.26367991 47.48889542 20.625 50.875 C15.83336477 55.3200595 11.00267655 59.71599794 6.12109375 64.0625 C4.02231754 65.97961418 2.00999855 67.99000145 0 70 C0 46.9 0 23.8 0 0 Z " fill="#FCFCFC" transform="translate(0,77)"/>
</svg>
